# xmcd
#
# Track frame offsets:
#	150
#	12995
#	27735
#	38817
#	51137
#	70780
#	83312
#	98732
#	111945
#	133135
#	146642
#	157305
#	173827
#	185045
#
# Disc length: 2619 seconds
# Revision: 3
# Processed by: cddbd v1.5.2PL0 Copyright (c) Steve Scherf et al.
# Submitted via: dBpowerAMP V12.0
#
DISCID=c30a390e
DTITLE=Various Artist - Marlboro - Country Rock '93
DYEAR=1993
DGENRE=Country
TTITLE0=Mike Reid - A Man With A Hammer
TTITLE1=Collin Raye - Big River
TTITLE2=Roger Miller - King Of The Road
TTITLE3=Rodney Crowell - It Don't Get Better Than This
TTITLE4=Willie Nelson - Georgia On My Mind
TTITLE5=Doug Stone - The Workin' End of a Hoe
TTITLE6=Waylon Jennings - Just Talkin'
TTITLE7=Willie Nelson - Good Hearted Woman
TTITLE8=James McMurtry - Where's Johnny
TTITLE9=Mike Reid - Keep On Walkin'
TTITLE10=Ricky Van Shelton - From A Jack To A King
TTITLE11=Stacy Dean Campbell - Rosalee
TTITLE12=Marty Robbins - Singing The Blues
TTITLE13=Patsy Cline - Walkin' After Midnight
EXTD=
EXTT0=
EXTT1=
EXTT2=
EXTT3=
EXTT4=
EXTT5=
EXTT6=
EXTT7=
EXTT8=
EXTT9=
EXTT10=
EXTT11=
EXTT12=
EXTT13=
PLAYORDER=
